<svg width="28" height="28" viewBox="0 0 28 28" fill="none" xmlns="http://www.w3.org/2000/svg">
<path d="M14.0233 3.39453C10.1617 3.39453 7.02334 6.53286 7.02334 10.3945V13.7662C7.02334 14.4779 6.72001 15.5629 6.35834 16.1695L5.01668 18.3979C4.18834 19.7745 4.76001 21.3029 6.27668 21.8162C11.305 23.4962 16.73 23.4962 21.7583 21.8162C23.17 21.3495 23.7883 19.6812 23.0183 18.3979L21.6767 16.1695C21.3267 15.5629 21.0233 14.4779 21.0233 13.7662V10.3945C21.0233 6.54453 17.8733 3.39453 14.0233 3.39453Z" stroke="#212121" stroke-width="1.5" stroke-miterlimit="10" stroke-linecap="round"/>
<path d="M16.1817 3.73416C15.82 3.62916 15.4467 3.54749 15.0617 3.50083C13.9417 3.36083 12.8683 3.44249 11.865 3.73416C12.2033 2.87083 13.0433 2.26416 14.0233 2.26416C15.0033 2.26416 15.8433 2.87083 16.1817 3.73416Z" stroke="#212121" stroke-width="1.5" stroke-miterlimit="10" stroke-linecap="round" stroke-linejoin="round"/>
<path d="M17.5234 22.2358C17.5234 24.1608 15.9484 25.7358 14.0234 25.7358C13.0667 25.7358 12.18 25.3392 11.55 24.7092C10.92 24.0792 10.5234 23.1925 10.5234 22.2358" stroke="#212121" stroke-width="1.5" stroke-miterlimit="10"/>
</svg>
