<svg width="27" height="26" viewBox="0 0 27 26" fill="none" xmlns="http://www.w3.org/2000/svg">
<path d="M2.7425 4.98333C3.60917 1.235 9.25333 1.235 10.1092 4.98333C10.6183 7.1825 9.22083 9.04583 8.0075 10.205C7.11917 11.05 5.72167 11.0392 4.83333 10.205C3.63083 9.04583 2.23333 7.1825 2.7425 4.98333Z" stroke="#585656" stroke-width="1.5"/>
<path d="M16.8258 17.9833C17.6925 14.235 23.3692 14.235 24.2358 17.9833C24.745 20.1825 23.3475 22.0458 22.1233 23.205C21.235 24.05 19.8267 24.0392 18.9383 23.205C17.7142 22.0458 16.3167 20.1825 16.8258 17.9833Z" stroke="#585656" stroke-width="1.5"/>
<path d="M13.5 5.41667H16.4033C18.4075 5.41667 19.3392 7.89751 17.8333 9.21917L9.1775 16.7917C7.67167 18.1025 8.60333 20.5833 10.5967 20.5833H13.5" stroke="#585656" stroke-width="1.5" stroke-linecap="round" stroke-linejoin="round"/>
<path d="M6.4434 5.95834H6.45592" stroke="#585656" stroke-width="2" stroke-linecap="round" stroke-linejoin="round"/>
<path d="M20.5267 18.9583H20.5392" stroke="#585656" stroke-width="2" stroke-linecap="round" stroke-linejoin="round"/>
</svg>
