<svg width="27" height="26" viewBox="0 0 27 26" fill="none" xmlns="http://www.w3.org/2000/svg">
<path d="M13.5 16.25C15.2949 16.25 16.75 14.7949 16.75 13C16.75 11.2051 15.2949 9.75 13.5 9.75C11.7051 9.75 10.25 11.2051 10.25 13C10.25 14.7949 11.7051 16.25 13.5 16.25Z" stroke="#585656" stroke-width="1.5" stroke-miterlimit="10" stroke-linecap="round" stroke-linejoin="round"/>
<path d="M2.66666 13.9535V12.0468C2.66666 10.9202 3.58749 9.9885 4.72499 9.9885C6.68582 9.9885 7.48749 8.60183 6.50166 6.901C5.93832 5.926 6.27416 4.6585 7.25999 4.09517L9.13416 3.02267C9.98999 2.5135 11.095 2.81683 11.6042 3.67267L11.7233 3.8785C12.6983 5.57933 14.3017 5.57933 15.2875 3.8785L15.4067 3.67267C15.9158 2.81683 17.0208 2.5135 17.8767 3.02267L19.7508 4.09517C20.7367 4.6585 21.0725 5.926 20.5092 6.901C19.5233 8.60183 20.325 9.9885 22.2858 9.9885C23.4125 9.9885 24.3442 10.9093 24.3442 12.0468V13.9535C24.3442 15.0802 23.4233 16.0118 22.2858 16.0118C20.325 16.0118 19.5233 17.3985 20.5092 19.0993C21.0725 20.0852 20.7367 21.3418 19.7508 21.9052L17.8767 22.9777C17.0208 23.4868 15.9158 23.1835 15.4067 22.3277L15.2875 22.1218C14.3125 20.421 12.7092 20.421 11.7233 22.1218L11.6042 22.3277C11.095 23.1835 9.98999 23.4868 9.13416 22.9777L7.25999 21.9052C6.27416 21.3418 5.93832 20.0743 6.50166 19.0993C7.48749 17.3985 6.68582 16.0118 4.72499 16.0118C3.58749 16.0118 2.66666 15.0802 2.66666 13.9535Z" stroke="#585656" stroke-width="1.5" stroke-miterlimit="10" stroke-linecap="round" stroke-linejoin="round"/>
</svg>
