<svg width="21" height="21" viewBox="0 0 21 21" fill="none" xmlns="http://www.w3.org/2000/svg">
<path d="M12.0138 3.07131L13.5538 6.15131C13.7638 6.58006 14.3238 6.99131 14.7963 7.07006L17.5875 7.53381C19.3725 7.83131 19.7925 9.12631 18.5063 10.4038L16.3363 12.5738C15.9688 12.9413 15.7675 13.6501 15.8813 14.1576L16.5025 16.8438C16.9925 18.9701 15.8638 19.7926 13.9825 18.6813L11.3663 17.1326C10.8938 16.8526 10.115 16.8526 9.63379 17.1326L7.01754 18.6813C5.14504 19.7926 4.00754 18.9613 4.49754 16.8438L5.11879 14.1576C5.23254 13.6501 5.03129 12.9413 4.66379 12.5738L2.49379 10.4038C1.21629 9.12631 1.62754 7.83131 3.41254 7.53381L6.20379 7.07006C6.66754 6.99131 7.22754 6.58006 7.43754 6.15131L8.97754 3.07131C9.81754 1.40006 11.1825 1.40006 12.0138 3.07131Z" fill="#FFC24C"/>
</svg>
